# xmcd
#
# Track frame offsets:
#	150
#	14311
#	25821
#	37997
#	51033
#	64750
#	77848
#	89734
#	102246
#	115038
#	129663
#	141280
#	153399
#	165077
#	179009
#	191486
#	203146
#	215642
#	230000
#
# Disc length: 3254 seconds
#
# Revision: 1
# Processed by: cddbd v1.5.1PL2 Copyright (c) Steve Scherf et al.
# Submitted via: audiograbber 1.83.01
#
DISCID=050cb413
DTITLE=Big Maybelle - Classics 5809 - 1944-1953
DYEAR=1950
DGENRE=R&B
TTITLE0=Hurry, hurry
TTITLE1=Indian giver
TTITLE2=Foolin' blues
TTITLE3=Little Miss Muffet
TTITLE4=Bad dream blues
TTITLE5=Too tight Mama
TTITLE6=Sad and disappointed girl
TTITLE7=Don't try to fool me
TTITLE8=Dirty deal blues
TTITLE9=Just want your love
TTITLE10=So good to my baby
TTITLE11=Gabbin' blues
TTITLE12=My country man
TTITLE13=Rain down rain
TTITLE14=Way back home
TTITLE15=Stay away from my Sam
TTITLE16=Jinny Mule
TTITLE17=Send for me
TTITLE18=Maybelle's blues
EXTD=Blues and Rhythm series:  Classics.  The Chronological Big Maybelle 1944-195
EXTD=3
EXTT0=
EXTT1=
EXTT2=
EXTT3=
EXTT4=
EXTT5=
EXTT6=
EXTT7=
EXTT8=
EXTT9=
EXTT10=
EXTT11=
EXTT12=
EXTT13=
EXTT14=
EXTT15=
EXTT16=
EXTT17=
EXTT18=
PLAYORDER=
